<svg xmlns="http://www.w3.org/2000/svg" xmlns:xlink="http://www.w3.org/1999/xlink" width="207.971" height="207.971" viewBox="0 0 55.026 55.026"><defs><linearGradient id="b"><stop offset="0" stop-color="#ccc"/><stop offset="1" stop-color="#f2f2f2"/></linearGradient><linearGradient id="a"><stop offset="0" stop-color="#1a1a1a"/><stop offset="1" stop-color="#4d4d4d"/></linearGradient><linearGradient gradientTransform="matrix(1.00001 0 0 1 -8.941 -4.941)" gradientUnits="userSpaceOnUse" y2="34.196" x2="-75.016" y1="72.587" x1="-114.437" id="j" xlink:href="#a"/><linearGradient gradientTransform="translate(-8.943 -4.941)" gradientUnits="userSpaceOnUse" y2="34.196" x2="-75.015" y1="72.587" x1="-114.437" id="e" xlink:href="#a"/><linearGradient gradientTransform="translate(-8.943 -4.941)" gradientUnits="userSpaceOnUse" y2="34.196" x2="-75.015" y1="72.587" x1="-114.437" id="f" xlink:href="#a"/><linearGradient gradientTransform="translate(-8.943 -4.941)" gradientUnits="userSpaceOnUse" y2="34.196" x2="-75.015" y1="72.587" x1="-114.437" id="g" xlink:href="#a"/><linearGradient gradientTransform="translate(-8.943 -4.941)" gradientUnits="userSpaceOnUse" y2="34.196" x2="-75.015" y1="72.587" x1="-114.437" id="h" xlink:href="#a"/><linearGradient gradientTransform="translate(-8.943 -4.941)" gradientUnits="userSpaceOnUse" y2="34.196" x2="-75.015" y1="72.587" x1="-114.437" id="i" xlink:href="#a"/><linearGradient gradientTransform="translate(-8.943 -4.941)" gradientUnits="userSpaceOnUse" y2="34.196" x2="-75.015" y1="72.587" x1="-114.437" id="d" xlink:href="#a"/><linearGradient gradientUnits="userSpaceOnUse" y2="24.112" x2="-76.156" y1="79.138" x1="-131.182" id="c" xlink:href="#b"/></defs><g transform="translate(131.182 -24.112)"><circle cx="-103.669" cy="51.625" r="27.513" fill="url(#c)" paint-order="fill markers stroke"/><path d="M-95.974 47.817c-.892.376-1.763.807-2.622 1.252-1.659.859-3.295 1.774-5.034 2.454-1.74.68-3.606 1.123-5.469.988-1.495-.108-2.928-.583-4.34-1.102l-8.618 14.914h36.776z" fill="#d9d916"/><g fill="none"><path d="M-109.137 37.748h4.895" stroke="url(#d)" stroke-width="2.91"/><path d="M-119.305 61.56h5.292" stroke="url(#e)" stroke-width="2.91"/><path d="M-116.553 56.798h5.29" stroke="url(#f)" stroke-width="2.91"/><path d="M-113.801 52.035h5.287" stroke="url(#g)" stroke-width="2.91"/><path d="M-111.049 47.273h5.285" stroke="url(#h)" stroke-width="2.91"/><path d="M-109.137 42.51h4.895" stroke="url(#i)" stroke-width="2.91"/><path d="M-122.057 66.323h36.776L-98.2 43.964V30.577l-10.936 2.93v10.457z" stroke="url(#j)" stroke-width="2.646" stroke-linecap="round" stroke-linejoin="round" paint-order="fill markers stroke"/></g></g></svg>