<svg xmlns="http://www.w3.org/2000/svg" xmlns:xlink="http://www.w3.org/1999/xlink" width="512" height="512" viewBox="0 0 135.467 135.467"><defs><linearGradient id="a"><stop offset="0" stop-color="#ccc"/><stop offset="1" stop-color="#f2f2f2"/></linearGradient><linearGradient id="b"><stop offset="0" stop-color="#1a1a1a"/><stop offset="1" stop-color="#4d4d4d"/></linearGradient><linearGradient xlink:href="#a" id="c" gradientUnits="userSpaceOnUse" gradientTransform="matrix(.8825 0 0 .95772 21.916 27.113)" x1="3.351" y1="172.425" x2="195.036" y2="174.914"/><linearGradient xlink:href="#b" id="d" gradientUnits="userSpaceOnUse" x1="62.007" y1="92.272" x2="105.077" y2="252.399" gradientTransform="matrix(1.00832 0 0 .96088 15.195 28.018)"/><linearGradient xlink:href="#a" id="e" gradientUnits="userSpaceOnUse" gradientTransform="matrix(.8825 0 0 .95772 21.916 27.113)" x1="3.351" y1="172.425" x2="195.036" y2="174.914"/></defs><g transform="matrix(.79961 0 0 .79626 -19.835 -92.53)" stroke-width="1.256" stroke="#000"><path d="M25.919 240.242c90.66-51.014 133.734-52.81 168.115-45.611-78.484-66.729-173.337-61.127-168.782-62.625 17.454 21.841 64.203 31.203 112.41 48.145-45.474-4.357-86.121 30.44-111.743 60.091z" fill="url(#c)" fill-rule="evenodd" stroke-width=".577"/><path d="M70.248 256.499l-10.843 13.318C37.509 229.148 27.242 184.17 77.717 116.68c52.932 54.37 48.358 84.432 113.187 138.166-38.146-11.722-34.204-19.198-97.198-88.538l-13.34.726C57.82 199.108 70.104 262.998 70.249 256.5z" fill="url(#d)" stroke-width=".618"/><path transform="matrix(.81903 .54812 -.55663 .80652 165.75 37.488)" d="M73.054 235.444l-13.763 10.811 8.39 16.078-14.535-9.748-12.698 12.947 4.78-16.836-16.238-8.076 17.489-.657 2.662-17.938 6.03 16.43z" fill="#d9d916" stroke-width=".942"/><ellipse ry="13.031" rx="13.234" cy="167.665" cx="82.185" fill="#d9d916" stroke-width=".926"/><path d="M121.666 197.962c-2.438-2.83-4.489-5.248-7.262-8.423-1.915-2.192-4.07-4.62-6.162-6.988-33.336 8.426-62.382 34.613-82.323 57.691 40.112-22.571 70.897-35.495 95.747-42.28z" fill="url(#e)" fill-rule="evenodd" stroke-width=".577"/></g></svg>